<?xml version="1.0" encoding="UTF-8"?>
<svg width="640px" height="640px" viewBox="0 0 640 640" version="1.1" xmlns="http://www.w3.org/2000/svg" xmlns:xlink="http://www.w3.org/1999/xlink">
    <!-- Generator: Sketch 52.5 (67469) - http://www.bohemiancoding.com/sketch -->
    <title>launcher - white</title>
    <desc>Created with Sketch.</desc>
    <defs>
        <path d="M151.782004,0 L488.217996,0 C540.995906,-1.77738248e-14 560.134451,5.49527618 579.429266,15.8142561 C598.72408,26.1332359 613.866764,41.2759195 624.185744,60.5707343 C634.504724,79.8655492 640,99.0040944 640,151.782004 L640,488.217996 C640,540.995906 634.504724,560.134451 624.185744,579.429266 C613.866764,598.72408 598.72408,613.866764 579.429266,624.185744 C560.134451,634.504724 540.995906,640 488.217996,640 L151.782004,640 C99.0040944,640 79.8655492,634.504724 60.5707343,624.185744 C41.2759195,613.866764 26.1332359,598.72408 15.8142561,579.429266 C5.49527618,560.134451 -1.18355413e-14,540.995906 -1.82989711e-14,488.217996 L0,151.782004 C-1.65861681e-14,99.0040944 5.49527618,79.8655492 15.8142561,60.5707343 C26.1332359,41.2759195 41.2759195,26.1332359 60.5707343,15.8142561 C79.8655492,5.49527618 99.0040944,-1.06478847e-14 151.782004,-2.03430293e-14 Z" id="path-1"></path>
        <linearGradient x1="50%" y1="100%" x2="50%" y2="3.061617e-15%" id="linearGradient-3">
            <stop stop-color="#17C060" stop-opacity="0.78" offset="0%"></stop>
            <stop stop-color="#17C060" stop-opacity="0.24" offset="100%"></stop>
        </linearGradient>
        <linearGradient x1="50%" y1="100%" x2="50%" y2="3.061617e-15%" id="linearGradient-4">
            <stop stop-color="#327D32" offset="0%"></stop>
            <stop stop-color="#17C060" offset="100%"></stop>
        </linearGradient>
    </defs>
    <g id="assets" stroke="none" stroke-width="1" fill="none" fill-rule="evenodd">
        <g id="locallife_AS_FeaturingAppsGames" transform="translate(-1840.000000, -220.000000)">
            <g id="launcher---cropped" transform="translate(1840.000000, 220.000000)">
                <mask id="mask-2" fill="white">
                    <use xlink:href="#path-1"></use>
                </mask>
                <use id="Mask" fill="#FFFFFF" fill-rule="nonzero" xlink:href="#path-1"></use>
                <g id="icon" stroke-width="1" fill-rule="evenodd" mask="url(#mask-2)">
                    <g transform="translate(80.000000, 120.000000)">
                        <path d="M178.183292,392.459603 C187.324314,392.459791 234.29908,328.27376 267.63908,263.071167 C287.056889,225.096015 259.707144,228.132481 259.706607,201.947611 C259.706436,193.63477 301.131671,144.149378 299.751397,136.274844 C289.318872,76.7567591 241.009901,31.7727059 178.175886,31.7714159 C107.028624,31.7699551 54.5064969,89.4423061 54.5079577,160.586087 C54.5094184,231.729867 163.718376,392.459306 178.183292,392.459603 Z" id="left" fill="url(#linearGradient-3)" fill-rule="nonzero" transform="translate(177.146548, 212.115510) rotate(-20.000000) translate(-177.146548, -212.115510) "></path>
                        <g id="right" stroke-width="1" fill="none" fill-rule="evenodd" transform="translate(301.805579, 211.945525) rotate(20.000000) translate(-301.805579, -211.945525) translate(178.055579, 31.436241)">
                            <path d="M123.671498,360.685492 C109.206473,360.685492 1.70530257e-13,199.959496 1.70530257e-13,128.816247 C1.70530257e-13,57.6729983 52.5237037,5.68434189e-14 123.671498,5.68434189e-14 C194.819291,5.68434189e-14 247.342995,57.6729983 247.342995,128.816247 C247.342995,199.959496 138.136522,360.685492 123.671498,360.685492 Z M123.671498,175.190096 C152.130615,175.190096 175.201288,152.120897 175.201288,123.663597 C175.201288,95.2062978 152.130615,72.1370984 123.671498,72.1370984 C95.21238,72.1370984 72.1417069,95.2062978 72.1417069,123.663597 C72.1417069,152.120897 95.21238,175.190096 123.671498,175.190096 Z" id="Combined-Shape" fill="url(#linearGradient-4)" fill-rule="nonzero"></path>
                        </g>
                    </g>
                </g>
            </g>
        </g>
    </g>
</svg>