<?xml version="1.0" encoding="UTF-8"?>
<svg width="96px" height="96px" viewBox="0 0 96 96" version="1.1" xmlns="http://www.w3.org/2000/svg" xmlns:xlink="http://www.w3.org/1999/xlink">
    <!-- Generator: Sketch 52.1 (67048) - http://www.bohemiancoding.com/sketch -->
    <title>launcher</title>
    <desc>Created with Sketch.</desc>
    <defs>
        <path d="M22.7673006,0 L73.2326994,0 C81.1493858,-5.34445507e-16 84.0201676,0.824291427 86.9143898,2.37213841 C89.8086121,3.91998539 92.0800146,6.19138793 93.6278616,9.08561015 C95.1757086,11.9798324 96,14.8506142 96,22.7673006 L96,73.2326994 C96,81.1493858 95.1757086,84.0201676 93.6278616,86.9143898 C92.0800146,89.8086121 89.8086121,92.0800146 86.9143898,93.6278616 C84.0201676,95.1757086 81.1493858,96 73.2326994,96 L22.7673006,96 C14.8506142,96 11.9798324,95.1757086 9.08561015,93.6278616 C6.19138793,92.0800146 3.91998539,89.8086121 2.37213841,86.9143898 C0.824291427,84.0201676 3.56297005e-16,81.1493858 -6.13217462e-16,73.2326994 L0,22.7673006 C-3.56297005e-16,14.8506142 0.824291427,11.9798324 2.37213841,9.08561015 C3.91998539,6.19138793 6.19138793,3.91998539 9.08561015,2.37213841 C11.9798324,0.824291427 14.8506142,5.34445507e-16 22.7673006,-9.19826193e-16 Z" id="path-1"></path>
        <linearGradient x1="50%" y1="100%" x2="50%" y2="3.061617e-15%" id="linearGradient-3">
            <stop stop-color="#17C060" stop-opacity="0.78" offset="0%"></stop>
            <stop stop-color="#17C060" stop-opacity="0.24" offset="100%"></stop>
        </linearGradient>
        <linearGradient x1="50%" y1="100%" x2="50%" y2="3.061617e-15%" id="linearGradient-4">
            <stop stop-color="#327D32" offset="0%"></stop>
            <stop stop-color="#17C060" offset="100%"></stop>
        </linearGradient>
    </defs>
    <g id="launcher" stroke="none" stroke-width="1" fill="none" fill-rule="evenodd">
        <g id="launcher---cropped">
            <mask id="mask-2" fill="white">
                <use xlink:href="#path-1"></use>
            </mask>
            <g id="Mask" fill-rule="nonzero"></g>
            <g id="launcher" stroke-width="1" fill-rule="evenodd" mask="url(#mask-2)">
                <g id="icon" transform="translate(6.822222, 12.444444)" fill-rule="nonzero">
                    <path d="M30.7613734,67.8473882 C31.491205,67.8473882 33.6191999,65.475295 36.2650158,61.8116366 C39.6005485,57.1929282 37.1634238,45.6725138 40.3810455,39.1133609 C43.3371335,33.0873468 48.6568422,29.7039911 48.6568422,25.5462936 C48.6568422,22.7264315 51.6164081,22.3303365 50.7307386,19.8483101 C47.7616746,11.5277174 40.2145057,5.62516599 30.7613734,5.62516599 C18.4883789,5.62516599 9.42804004,15.5743938 9.42804004,27.8473882 C9.42804004,40.1203827 28.2661567,67.8473882 30.7613734,67.8473882 Z" id="left" fill="url(#linearGradient-3)" transform="translate(30.162093, 36.736277) rotate(-20.000000) translate(-30.162093, -36.736277) "></path>
                    <g id="right" transform="translate(52.073744, 36.567578) rotate(20.000000) translate(-52.073744, -36.567578) translate(30.713744, 5.427578)" fill="url(#linearGradient-4)">
                        <path d="M21.3333333,62.2222222 C18.8381167,62.2222222 0,34.4952167 0,22.2222222 C0,9.94922778 9.06033889,0 21.3333333,0 C33.6063278,0 42.6666667,9.94922778 42.6666667,22.2222222 C42.6666667,34.4952167 23.82855,62.2222222 21.3333333,62.2222222 Z M21.3333333,30.2222222 C26.2425311,30.2222222 30.2222222,26.2425311 30.2222222,21.3333333 C30.2222222,16.4241356 26.2425311,12.4444444 21.3333333,12.4444444 C16.4241356,12.4444444 12.4444444,16.4241356 12.4444444,21.3333333 C12.4444444,26.2425311 16.4241356,30.2222222 21.3333333,30.2222222 Z" id="Combined-Shape"></path>
                    </g>
                </g>
            </g>
        </g>
    </g>
</svg>